<svg width="211" height="211" viewBox="0 0 211 211" fill="none" xmlns="http://www.w3.org/2000/svg">
<path d="M94.5924 200.408C95.7735 200.532 96.7371 200.455 97.4832 200.175C98.2279 199.909 98.8124 199.4 99.2367 198.649C99.6479 197.896 99.9242 196.85 100.065 195.511C100.209 194.147 100.16 193.04 99.9182 192.192C99.6615 191.355 99.204 190.723 98.5459 190.295C97.8877 189.868 96.9944 189.594 95.8657 189.475C95.1439 189.399 94.3962 189.38 93.6226 189.417C92.8345 189.467 92.1043 189.596 91.4322 189.803L91.5859 188.347C92.1634 188.155 92.8462 188.035 93.6344 187.985C94.4239 187.923 95.2189 187.934 96.0195 188.018C100.39 188.48 102.331 191.02 101.843 195.639C101.59 198.041 100.828 199.732 99.5563 200.713C98.2837 201.706 96.5253 202.085 94.2812 201.848C92.9688 201.709 91.6272 201.408 90.2562 200.945L90.624 197.461L92.0019 197.606L92.0997 199.886C92.8954 200.142 93.7263 200.316 94.5924 200.408Z" fill="white"/>
<path d="M76.0763 197.911C74.1666 197.298 72.8555 196.266 72.1429 194.818C71.4263 193.381 71.4253 191.551 72.14 189.328C72.8547 187.104 73.9236 185.611 75.3468 184.849C76.766 184.099 78.4304 184.031 80.3401 184.644C82.2498 185.258 83.5629 186.283 84.2795 187.719C84.9921 189.168 84.9911 191.004 84.2764 193.228C83.5617 195.452 82.4948 196.939 81.0756 197.689C79.6524 198.451 77.9859 198.525 76.0763 197.911ZM76.5244 196.517C77.5421 196.844 78.4258 196.941 79.1756 196.808C79.9128 196.67 80.5615 196.269 81.1219 195.603C81.6823 194.938 82.1684 193.965 82.5803 192.683C82.9921 191.402 83.1642 190.327 83.0964 189.46C83.0286 188.593 82.7351 187.888 82.216 187.347C81.6842 186.802 80.9096 186.366 79.8919 186.039C78.8743 185.712 77.9968 185.617 77.2596 185.754C76.5099 185.888 75.8548 186.287 75.2944 186.952C74.734 187.618 74.2479 188.591 73.8361 189.873C73.4242 191.154 73.2522 192.229 73.32 193.096C73.3878 193.963 73.6875 194.67 74.2192 195.215C74.7384 195.756 75.5068 196.19 76.5244 196.517Z" fill="white"/>
<path d="M50.1472 185.127L50.7244 184.158L52.2767 184.414L58.2917 174.311L60.0265 175.344L60.7725 188.988L65.7141 180.688L64.6742 179.378L65.2311 178.443L69.0751 180.731L68.5181 181.667L66.9557 181.427L61.8014 190.085L62.7664 191.327L62.1892 192.297L59.1957 190.515L58.4567 176.897L53.5353 185.163L54.5853 186.457L54.0081 187.426L50.1472 185.127Z" fill="white"/>
<path d="M37.4337 169.046L38.2256 169.793L37.0131 171.915L39.6191 174.373L46.7235 166.843L45.9215 165.27L46.6686 164.478L50.3258 167.928L49.5787 168.72L47.9617 168.011L40.8574 175.541L43.4635 178L45.5111 176.666L46.303 177.413L43.6949 180.178L34.8256 171.81L37.4337 169.046Z" fill="white"/>
<path d="M32.2946 148.001L33.1878 147.379L35.7911 151.114L34.8979 151.736L33.6671 150.905L31.8911 153.446L35.2301 158.237L38.256 157.455L37.8746 156.007L38.7678 155.385L41.1787 158.844L40.2855 159.466L39.0011 158.697L26.6443 161.808L25.3766 159.989L32.556 149.484L32.2946 148.001ZM31.0324 154.672L27.0754 160.349L33.7828 158.618L31.0324 154.672Z" fill="white"/>
<path d="M17.3861 142.356C17.8555 143.447 18.3946 144.249 19.0035 144.763C19.6003 145.282 20.3301 145.543 21.1931 145.545C22.0508 145.535 23.0979 145.264 24.3343 144.733C25.5951 144.19 26.536 143.606 27.1572 142.979C27.7611 142.346 28.0885 141.638 28.1394 140.855C28.1903 140.071 27.9915 139.158 27.5431 138.116C27.2562 137.449 26.907 136.788 26.4955 136.131C26.0666 135.468 25.5971 134.895 25.087 134.41L26.4325 133.831C26.8819 134.241 27.321 134.778 27.7499 135.441C28.1909 136.099 28.5705 136.798 28.8886 137.537C30.6252 141.574 29.36 144.51 25.0929 146.346C22.8745 147.3 21.0267 147.463 19.5496 146.834C18.0602 146.21 16.8697 144.862 15.978 142.789C15.4565 141.577 15.0622 140.26 14.7951 138.838L18.0136 137.453L18.5612 138.726L16.6212 139.927C16.787 140.746 17.0419 141.556 17.3861 142.356Z" fill="white"/>
<path d="M13.3249 118.797L13.5489 119.862L11.3425 120.913L12.0795 124.419L22.2107 122.289L22.4498 120.54L23.5152 120.316L24.5495 125.236L23.4841 125.46L22.5609 123.955L12.4298 126.085L13.1668 129.591L15.6095 129.664L15.8335 130.73L12.1142 131.512L9.60566 119.579L13.3249 118.797Z" fill="white"/>
<path d="M11.3374 87.425L11.714 89.1433L18.1428 89.8968C20.1482 90.1319 21.5261 90.7318 22.2766 91.6967C23.0156 92.647 23.2806 94.0134 23.0717 95.7959C22.8581 97.6177 22.2767 98.9513 21.3272 99.7967C20.3647 100.64 18.9266 100.95 17.013 100.726L10.4466 99.9563L9.70589 101.344L8.58527 101.213L9.1245 96.6125L10.2451 96.7439L10.6447 98.2655L17.0736 99.0191C18.109 99.1404 18.9443 99.0988 19.5795 98.8943C20.2031 98.675 20.6724 98.2982 20.9875 97.7638C21.3041 97.2163 21.517 96.4773 21.6261 95.5467C21.729 94.6686 21.7005 93.9477 21.5407 93.3843C21.3678 92.8192 21.0157 92.3661 20.4843 92.0248C19.9399 91.6819 19.15 91.4498 18.1145 91.3285L11.5481 90.5588L10.7913 92.0844L9.67065 91.9531L10.2168 87.2936L11.3374 87.425Z" fill="white"/>
<path d="M19.7671 75.486C20.3177 74.5159 20.7901 73.8188 21.1841 73.3948C21.5823 72.9583 22.0445 72.7035 22.5706 72.6305C23.0884 72.5409 23.7662 72.6375 24.6038 72.9206C25.5415 73.2374 26.222 73.6554 26.6456 74.1746C27.0691 74.6938 27.2771 75.3561 27.2696 76.1615C27.2497 76.9627 27.0284 77.9884 26.606 79.2386C26.0357 80.9263 25.3201 82.4257 24.4592 83.7367L21.1212 82.6088L21.5584 81.3148L23.8228 81.7247C24.3982 80.8048 24.8698 79.8011 25.2373 78.7134C25.5499 77.7882 25.7177 77.0649 25.7407 76.5433C25.7679 76.0093 25.6674 75.6062 25.439 75.334C25.198 75.0576 24.8213 74.8328 24.3087 74.6596C23.6836 74.4483 23.2207 74.3755 22.92 74.441C22.6192 74.5066 22.3241 74.7411 22.0345 75.1447C21.7449 75.5483 21.2637 76.3539 20.5911 77.5613L20.3389 77.9984C19.805 78.9602 19.3117 79.6781 18.859 80.152C18.3981 80.6091 17.9087 80.8825 17.3909 80.9722C16.8773 81.0494 16.2579 80.9655 15.5328 80.7204C14.6452 80.4205 14 80.0214 13.5972 79.5232C13.1862 79.0082 12.9886 78.3564 13.0043 77.5677C13.0201 76.7791 13.2286 75.7909 13.63 74.6032C14.1242 73.1405 14.7979 71.6826 15.651 70.2297L18.9328 71.3386L18.5146 72.5763L16.3316 72.173C15.8105 73.0556 15.3641 74.0469 14.9923 75.1471C14.7008 76.0098 14.5457 76.6956 14.5269 77.2046C14.4956 77.7095 14.5879 78.0958 14.8038 78.3638C15.0115 78.6151 15.3466 78.8188 15.8091 78.9751C16.3842 79.1695 16.8243 79.2276 17.1292 79.1496C17.4384 79.059 17.7378 78.812 18.0274 78.4083C18.3212 77.9922 18.7981 77.1992 19.4581 76.0293L19.7671 75.486Z" fill="white"/>
<path d="M33.4918 58.7379C33.7216 58.3837 34.0008 58.1716 34.3294 58.1016C34.6469 58.0244 34.9883 58.1043 35.3536 58.3414C35.7189 58.5784 35.9366 58.8612 36.0066 59.1897C36.0655 59.5111 35.98 59.8489 35.7502 60.2032C35.5204 60.5574 35.2467 60.7731 34.9292 60.8503C34.6007 60.9203 34.2537 60.8368 33.8884 60.5998C33.5231 60.3627 33.3109 60.0835 33.252 59.7622C33.182 59.4336 33.262 59.0922 33.4918 58.7379Z" fill="white"/>
<path d="M49.8914 34.3391L50.6484 35.1757L50.0942 36.4513L53.1489 39.8272C52.7906 40.454 52.3431 41.0903 51.8063 41.7362C51.2881 42.383 50.7551 42.9543 50.2071 43.4502C48.5045 44.9908 46.8557 45.7353 45.2606 45.6836C43.6753 45.6232 42.0681 44.6927 40.4389 42.8922C38.8186 41.1015 38.0622 39.41 38.1698 37.8178C38.2783 36.2069 39.1741 34.64 40.8571 33.117C41.9335 32.1431 43.193 31.2437 44.6356 30.4188L46.9864 33.0168L45.959 33.9464L44.2087 32.5136C43.3634 32.9759 42.5689 33.5436 41.8252 34.2165C40.8957 35.0576 40.272 35.8533 39.9542 36.6036C39.6462 37.345 39.64 38.1248 39.9355 38.943C40.2221 39.7515 40.8302 40.6694 41.7599 41.6969C42.7073 42.7439 43.569 43.4503 44.3448 43.816C45.1207 44.1818 45.888 44.2528 46.6466 44.0291C47.4061 43.7868 48.2458 43.2494 49.1656 42.4171C49.9973 41.6645 50.6525 40.8938 51.131 40.1048L48.8466 37.5803L47.5221 38.0046L46.765 37.168L49.8914 34.3391Z" fill="white"/>
<path d="M63.3767 22.1622L62.386 22.7423L60.8146 21.1163L55.1092 24.4568L57.4995 28.5394L60.7793 26.6191L60.2554 25.1367L61.1949 24.5866L63.5053 28.5325L62.5658 29.0826L61.4994 27.849L58.2196 29.7693L60.34 33.3907L62.1945 32.993L62.7446 33.9325L58.457 36.4429L57.9069 35.5034L58.8709 34.2508L53.7801 25.5561L52.226 25.8008L51.6559 24.8271L61.5464 19.0362L63.3767 22.1622Z" fill="white"/>
<path d="M82.9913 18.0049L83.3504 19.0745L82.3321 20.0219L83.781 24.3379C83.2019 24.769 82.5372 25.1731 81.7868 25.5503C81.0532 25.9358 80.3361 26.2461 79.6355 26.4813C77.4587 27.2121 75.6497 27.2347 74.2085 26.5492C72.7799 25.8596 71.6791 24.3638 70.9064 22.0619C70.1378 19.7725 70.1213 17.9197 70.8569 16.5034C71.6009 15.0705 73.0487 13.9928 75.2005 13.2704C76.5766 12.8085 78.0908 12.4881 79.7429 12.3093L80.858 15.6307L79.5444 16.0717L78.5135 14.0583C77.5539 14.1438 76.5987 14.3462 75.6479 14.6654C74.4594 15.0644 73.5695 15.5441 72.9781 16.1045C72.3992 16.6608 72.0815 17.373 72.0249 18.2411C71.9642 19.0967 72.1543 20.1813 72.5953 21.4949C73.0446 22.8335 73.5517 23.8256 74.1164 24.4712C74.6812 25.1169 75.3559 25.4889 76.1407 25.5874C76.9338 25.6692 77.9183 25.5126 79.0942 25.1179C80.1576 24.7609 81.0664 24.3166 81.8206 23.785L80.737 20.5573L79.3534 20.4163L78.9943 19.3467L82.9913 18.0049Z" fill="white"/>
<path d="M104.952 14.573C106.051 14.7656 106.866 14.9763 107.398 15.2049C107.943 15.4332 108.338 15.7829 108.583 16.2539C108.842 16.7115 108.979 17.3823 108.994 18.2663C109.01 19.2559 108.845 20.0374 108.499 20.6108C108.152 21.1842 107.598 21.6027 106.837 21.8663C106.076 22.1167 105.035 22.253 103.716 22.2753C101.935 22.3053 100.282 22.1352 98.7578 21.765L98.6984 18.242L100.064 18.219L100.439 20.4894C101.499 20.7223 102.603 20.829 103.75 20.8097C104.727 20.7932 105.465 20.7082 105.963 20.5546C106.476 20.4007 106.822 20.1705 107.001 19.8639C107.18 19.5442 107.266 19.1138 107.256 18.5728C107.245 17.9131 107.158 17.4526 106.996 17.1914C106.833 16.9302 106.513 16.731 106.035 16.5939C105.558 16.4567 104.637 16.2743 103.274 16.0465L102.778 15.9559C101.692 15.7762 100.851 15.5529 100.252 15.2858C99.6667 15.0053 99.2447 14.6363 98.9862 14.1787C98.7409 13.7209 98.6118 13.1094 98.5989 12.3441C98.5831 11.4073 98.7422 10.6655 99.0761 10.1187C99.423 9.55853 99.9705 9.15334 100.719 8.90315C101.467 8.65296 102.467 8.51729 103.721 8.49615C105.265 8.4701 106.864 8.6147 108.519 8.92993L108.578 12.3935L107.271 12.4155L106.918 10.224C105.911 10.0298 104.828 9.94249 103.666 9.96208C102.756 9.97744 102.058 10.0618 101.572 10.2152C101.086 10.3554 100.753 10.5722 100.574 10.8656C100.407 11.1455 100.327 11.5296 100.336 12.0178C100.346 12.6248 100.439 13.0587 100.615 13.3197C100.804 13.5805 101.137 13.7795 101.615 13.9166C102.105 14.0535 103.013 14.2362 104.336 14.4646L104.952 14.573Z" fill="white"/>
<path d="M127.926 14.9725L126.855 14.7789L126.713 12.3393L123.187 11.702L121.346 21.8896L122.876 22.7697L122.683 23.841L117.735 22.9468L117.929 21.8754L119.67 21.5868L121.512 11.3993L117.986 10.762L116.999 12.9974L115.927 12.8038L116.603 9.06378L128.602 11.2325L127.926 14.9725Z" fill="white"/>
<path d="M148.759 19.7898L147.004 19.6803L144.515 25.6554C143.738 27.5192 142.783 28.6795 141.649 29.1363C140.532 29.5861 139.146 29.4659 137.489 28.7757C135.796 28.0703 134.673 27.1451 134.121 26.0001C133.574 24.8429 133.671 23.375 134.411 21.5965L136.954 15.4935L135.823 14.4003L136.256 13.3588L140.532 15.1401L140.098 16.1816L138.525 16.1482L136.036 22.1232C135.635 23.0856 135.446 23.9002 135.468 24.5672C135.508 25.227 135.741 25.7817 136.169 26.2314C136.608 26.6861 137.261 27.0937 138.126 27.454C138.942 27.794 139.643 27.9645 140.228 27.9655C140.819 27.9543 141.352 27.7401 141.826 27.3228C142.305 26.8934 142.745 26.1975 143.146 25.2352L145.688 19.1322L144.429 17.9857L144.863 16.9442L149.193 18.7483L148.759 19.7898Z" fill="white"/>
<path d="M162.281 26.99C163.708 28.0109 164.588 29.2647 164.92 30.7514C165.252 32.238 164.712 33.9689 163.3 35.944C161.865 37.9514 160.386 39.0436 158.864 39.2207C157.35 39.3871 155.879 38.9599 154.451 37.939L148.671 33.8054L149.304 32.9199L151.11 33.457L156.959 25.2774L155.844 23.7742L156.5 22.8565L162.281 26.99ZM158.505 26.0422L152.334 34.6726L154.942 36.5379C155.747 37.1136 156.508 37.4791 157.224 37.6344C157.948 37.779 158.692 37.6459 159.456 37.2352C160.239 36.8214 161.037 36.0456 161.851 34.9078C162.649 33.7914 163.11 32.8068 163.233 31.9539C163.375 31.098 163.256 30.3562 162.878 29.7286C162.507 29.0902 161.919 28.4832 161.114 27.9075L158.505 26.0422Z" fill="white"/>
<path d="M178.525 46.9975L177.74 46.1331L178.932 44.3546L174.407 39.373L171.037 42.4344L173.686 45.35L175.014 44.5449L175.746 45.3508L172.434 48.3589L171.702 47.553L172.631 46.3084L169.982 43.3927L166.554 46.5073L171.079 51.4888L173.11 50.3391L173.895 51.2035L171.156 53.6925L163.369 45.1214L164.175 44.3893L165.599 45.0742L173.057 38.2993L172.497 36.8291L173.332 36.0705L181.119 44.6416L178.525 46.9975Z" fill="white"/>
<path d="M193.062 63.4553L192.082 64.0141L190.858 63.0259L180.643 68.8495L179.643 67.0955L185.722 54.8572L177.331 59.6416L177.589 61.2942L176.643 61.8334L174.428 57.9471L175.373 57.4079L176.615 58.3863L185.368 53.396L185.141 51.8392L186.121 51.2803L187.847 54.3069L181.775 66.5181L190.132 61.7534L189.857 60.1105L190.837 59.5517L193.062 63.4553Z" fill="white"/>
<path d="M196.193 83.7157L195.873 82.6753L197.974 81.4273L196.919 78.0033L187.025 81.0515L186.947 82.8154L185.907 83.1359L184.426 78.331L185.467 78.0104L186.524 79.4246L196.417 76.3764L195.362 72.9524L192.923 73.1032L192.603 72.0627L196.235 70.9437L199.825 82.5967L196.193 83.7157Z" fill="white"/>
<path d="M199.113 125.092C199.345 123.927 199.357 122.96 199.147 122.192C198.95 121.426 198.497 120.797 197.788 120.306C197.076 119.827 196.06 119.456 194.74 119.192C193.394 118.924 192.288 118.871 191.421 119.034C190.564 119.213 189.893 119.611 189.406 120.227C188.92 120.843 188.566 121.707 188.343 122.82C188.201 123.532 188.113 124.275 188.08 125.049C188.057 125.838 188.118 126.577 188.263 127.265L186.827 126.978C186.689 126.386 186.632 125.695 186.655 124.905C186.665 124.113 186.749 123.323 186.907 122.533C187.767 118.224 190.475 116.524 195.03 117.434C197.399 117.907 199.013 118.821 199.872 120.177C200.745 121.535 200.96 123.321 200.518 125.534C200.26 126.828 199.837 128.136 199.25 129.459L195.814 128.773L196.086 127.414L198.364 127.526C198.693 126.757 198.942 125.946 199.113 125.092Z" fill="white"/>
<path d="M190.418 150.205L190.48 148.633L181.27 144.597L180.12 145.692L179.123 145.256L180.982 141.013L181.979 141.45L181.953 143.038L185.942 144.786L189.056 137.679L185.068 135.931L183.918 137.026L182.921 136.589L184.78 132.347L185.777 132.784L185.751 134.372L194.961 138.408L196.075 137.296L197.108 137.749L195.249 141.992L194.216 141.539L194.278 139.967L190.362 138.251L187.247 145.358L191.164 147.074L192.277 145.963L193.311 146.416L191.452 150.658L190.418 150.205Z" fill="white"/>
<path d="M169.362 161.205L168.486 160.559L171.189 156.895L172.065 157.542L171.673 158.974L174.649 159.841L178.116 155.143L176.405 152.527L175.156 153.353L174.28 152.706L176.783 149.314L177.659 149.96L177.342 151.423L184.251 162.13L182.935 163.914L170.683 160.482L169.362 161.205ZM176.085 160.262L182.732 162.189L178.941 156.391L176.085 160.262Z" fill="white"/>
<path d="M166.618 169.84L164.191 167.125L162.69 167.643L161.965 166.831L165.419 163.745L166.144 164.557L165.461 165.99L172.161 173.488L173.636 172.94L174.388 173.781L168.514 179.031C167.559 179.884 166.607 180.275 165.658 180.203C164.709 180.131 163.79 179.598 162.902 178.604C162.014 177.61 161.602 176.624 161.666 175.647C161.721 174.678 162.245 173.749 163.238 172.861L166.618 169.84ZM164.23 177.417C164.846 178.106 165.428 178.479 165.976 178.538C166.523 178.616 167.092 178.391 167.682 177.863L171.077 174.829L167.568 170.903L164.321 173.805C163.662 174.394 163.326 174.969 163.313 175.529C163.3 176.089 163.606 176.718 164.23 177.417Z" fill="white"/>
<path d="M147.221 188.821L148.163 188.273L149.853 190.038L152.95 188.236L147.744 179.287L146.008 179.61L145.461 178.669L149.807 176.141L150.354 177.082L149.216 178.431L154.422 187.38L157.518 185.578L156.82 183.237L157.761 182.689L159.672 185.974L149.133 192.106L147.221 188.821Z" fill="white"/>
<path d="M129.816 195.736L130.923 195.364L132.074 197.17L138.453 195.025L137.001 190.709L133.268 191.965L133.472 193.504L132.44 193.852L131.014 189.611L132.046 189.264L132.813 190.614L136.547 189.359L135.07 184.968L128.691 187.114L128.929 189.435L127.822 189.808L126.642 186.299L137.618 182.608L137.965 183.64L136.766 184.669L139.978 194.219L141.549 194.296L141.909 195.366L130.933 199.057L129.816 195.736Z" fill="white"/>
<path d="M109.062 190.049L108.937 188.967L111.198 188.706L115.537 193.823L118.939 193.429L118.493 189.575L116.967 189.134L116.842 188.052L121.443 187.519L121.568 188.601L120.184 189.379L121.34 199.368L122.861 199.77L122.991 200.89L115.146 201.799C113.874 201.946 112.872 201.723 112.139 201.131C111.408 200.551 110.968 199.619 110.819 198.334C110.687 197.194 110.858 196.264 111.333 195.545C111.796 194.84 112.544 194.362 113.578 194.109L110.468 190.484L109.062 190.049ZM119.103 194.844L114.757 195.348C113.879 195.449 113.272 195.712 112.936 196.136C112.601 196.574 112.485 197.238 112.589 198.129C112.69 199.008 112.947 199.622 113.36 199.973C113.759 200.325 114.352 200.456 115.139 200.365L119.681 199.839L119.103 194.844Z" fill="white"/>
<path d="M109.062 190.049L108.937 188.967L111.198 188.706L115.537 193.823L118.939 193.429L118.493 189.575L116.967 189.134L116.842 188.052L121.443 187.519L121.568 188.601L120.184 189.379L121.34 199.368L122.861 199.77L122.991 200.89L115.146 201.799C113.874 201.946 112.872 201.723 112.139 201.131C111.408 200.551 110.968 199.619 110.819 198.334C110.687 197.194 110.858 196.264 111.333 195.545C111.796 194.84 112.544 194.362 113.578 194.109L110.468 190.484L109.062 190.049ZM119.103 194.844L114.757 195.348C113.879 195.449 113.272 195.712 112.936 196.136C112.601 196.574 112.485 197.238 112.589 198.129C112.69 199.008 112.947 199.622 113.36 199.973C113.759 200.325 114.352 200.456 115.139 200.365L119.681 199.839L119.103 194.844Z" fill="white"/>
<path d="M105.656 194.747C105.885 194.392 106.165 194.18 106.493 194.11C106.811 194.033 107.152 194.113 107.517 194.35C107.883 194.587 108.1 194.87 108.17 195.199C108.229 195.52 108.144 195.858 107.914 196.212C107.684 196.566 107.411 196.782 107.093 196.859C106.764 196.929 106.418 196.846 106.052 196.609C105.687 196.372 105.475 196.092 105.416 195.771C105.346 195.442 105.426 195.101 105.656 194.747Z" fill="white"/>
</svg>
